P2
# Derinytu in association with DOTO (the gangsters)
30 30
255
255
255
255
255
255
255
255
255
255
255
222
61
53
32
43
40
51
133
240
255
255
255
255
255
255
255
255
255
255
255
255
255
255
255
255
255
255
255
245
60
14
1
1
0
0
0
2
5
26
219
255
255
255
255
255
255
255
255
255
255
255
255
255
255
255
255
255
243
46
3
2
2
3
2
1
0
0
0
2
15
52
206
255
255
255
255
255
255
255
255
255
255
255
255
255
255
253
49
4
1
2
2
3
5
4
5
2
3
7
5
9
19
222
255
255
255
255
255
255
255
255
255
255
255
255
255
122
6
0
0
1
4
3
2
3
4
3
3
3
7
5
8
53
255
255
255
255
255
255
255
255
255
255
255
255
255
37
0
1
6
2
2
3
3
1
0
0
3
3
4
7
2
17
245
255
255
255
255
255
255
255
255
255
255
255
250
18
0
4
6
4
2
2
2
3
4
8
11
12
15
14
1
5
133
255
255
255
255
255
255
255
255
255
255
255
224
4
0
14
24
25
25
27
23
21
31
39
43
45
39
25
4
4
49
255
255
255
255
255
255
255
255
255
255
255
224
6
1
24
40
43
49
56
56
57
61
65
78
68
53
47
15
1
30
255
255
255
255
255
255
255
255
255
255
255
186
3
3
27
43
45
50
58
69
71
66
66
76
65
56
54
20
3
41
255
255
255
255
255
255
255
255
255
255
255
175
3
6
29
42
46
52
58
68
67
65
68
70
61
61
55
22
6
52
255
255
255
255
255
255
255
255
255
255
255
189
3
13
35
42
49
54
60
83
78
67
82
77
68
63
54
24
12
53
255
255
255
255
255
255
255
255
255
255
255
210
4
25
41
38
37
37
46
56
58
60
58
54
56
62
55
47
16
55
255
255
255
255
255
255
255
255
255
255
255
137
52
22
24
19
9
1
7
22
50
32
19
8
7
16
23
33
23
113
252
255
255
255
255
255
255
255
255
255
255
43
37
11
22
18
11
4
12
10
20
15
15
9
0
11
18
3
63
45
196
255
255
255
255
255
255
255
255
255
255
61
26
26
27
25
26
23
24
16
59
21
24
21
21
21
24
22
31
46
215
255
255
255
255
255
255
255
255
255
255
132
27
37
33
38
45
38
31
24
87
38
27
40
43
43
43
26
31
49
250
255
255
255
255
255
255
255
255
255
255
199
31
38
29
28
40
33
21
39
75
58
23
41
48
49
31
45
41
73
255
255
255
255
255
255
255
255
255
255
255
255
124
35
44
44
28
25
30
42
59
58
36
24
31
42
51
44
40
204
255
255
255
255
255
255
255
255
255
255
255
255
253
104
37
42
38
39
28
22
25
22
31
41
55
57
45
37
134
253
255
255
255
255
255
255
255
255
255
255
255
255
255
184
29
31
33
29
26
26
22
24
36
44
49
44
37
95
253
255
255
255
255
255
255
255
255
255
255
255
255
255
255
241
32
29
26
21
25
28
33
30
27
24
34
41
32
165
255
255
255
255
255
255
255
255
255
255
255
255
255
255
255
253
81
28
28
28
26
37
33
35
27
28
34
30
37
243
255
255
255
255
255
255
255
255
255
255
255
255
255
255
255
255
173
26
30
38
27
25
26
26
33
46
31
25
59
253
255
255
255
255
255
255
255
255
255
255
255
255
255
255
255
255
185
25
28
40
41
38
35
41
46
43
26
24
46
236
255
255
255
255
255
255
255
255
255
255
255
255
255
255
255
234
54
28
23
29
41
44
43
50
47
30
20
28
29
132
255
255
255
255
255
255
255
255
255
255
255
255
255
235
164
76
29
29
26
20
21
24
25
25
22
21
26
34
28
46
193
253
255
255
255
255
255
255
255
255
235
102
33
20
21
38
27
30
29
25
22
19
16
22
25
27
29
42
26
48
46
27
226
255
255
255
255
255
198
66
21
12
11
8
25
37
30
27
30
28
26
27
28
27
27
36
39
36
26
49
51
21
23
147
253
255
255
255
16
13
13
14
13
10
28
37
34
25
31
31
27
25
27
29
33
40
38
24
37
49
51
16
11
16
42
212
255
255
